<svg xmlns="http://www.w3.org/2000/svg" width="252.992" height="211.593" viewBox="0 0 252.992 211.593">
  <g id="Group_1576" data-name="Group 1576" transform="translate(-1314.504 -4969.865)">
    <g id="Group_1036" data-name="Group 1036" transform="translate(785.829 4772.749)">
      <circle id="Ellipse_187" data-name="Ellipse 187" cx="8.042" cy="8.042" r="8.042" transform="translate(763.583 390.625)" fill="none" stroke="#081e40" stroke-width="4"/>
      <circle id="Ellipse_188" data-name="Ellipse 188" cx="8.042" cy="8.042" r="8.042" transform="translate(534.675 303.061)" fill="none" stroke="#081e40" stroke-width="4"/>
      <circle id="Ellipse_189" data-name="Ellipse 189" cx="71.5" cy="71.5" r="71.5" transform="translate(592.448 247.625)" fill="#fff" stroke="#081e40" stroke-width="0.5"/>
      <g id="Group_1055" data-name="Group 1055" transform="translate(574.928 230.121)">
        <g id="Group_1040" data-name="Group 1040" transform="translate(24.34 21.131)">
          <g id="Group_1036-2" data-name="Group 1036" transform="translate(45.02 48.843)">
            <circle id="Ellipse_190" data-name="Ellipse 190" cx="19.436" cy="19.436" r="19.436" fill="#e8e4ee"/>
          </g>
          <g id="Group_1037" data-name="Group 1037" transform="translate(62.292 21.705)">
            <path id="Path_773" data-name="Path 773" d="M611.879,252.282h0a2.392,2.392,0,0,0-2.391,2.391v50.155h4.782V254.673A2.391,2.391,0,0,0,611.879,252.282Z" transform="translate(-609.488 -252.282)" fill="#081e40"/>
          </g>
          <g id="Group_1038" data-name="Group 1038" transform="translate(40.392 65.888)">
            <path id="Rectangle_952" data-name="Rectangle 952" d="M1,0H3.785a1,1,0,0,1,1,1V29.907a0,0,0,0,1,0,0H0a0,0,0,0,1,0,0V1A1,1,0,0,1,1,0Z" transform="translate(0 4.782) rotate(-90)" fill="#081e40"/>
          </g>
          <g id="Group_1039" data-name="Group 1039" transform="translate(59.842 63.438)">
            <circle id="Ellipse_191" data-name="Ellipse 191" cx="4.841" cy="4.841" r="4.841" fill="#458af5"/>
          </g>
          <path id="Path_774" data-name="Path 774" d="M699.849,241.38l-1.672-.327-12.4,10.7,2.749,2.337a71.96,71.96,0,1,1-97.169,106.02l-2.567-2.54-11.526,12.57,2.4,2.354A88.986,88.986,0,1,0,699.849,241.38Z" transform="translate(-577.262 -241.053)" fill="#2ac16d"/>
        </g>
        <g id="Group_1053" data-name="Group 1053" transform="translate(24.249 23.791)">
          <g id="Group_1041" data-name="Group 1041" transform="translate(63.204)">
            <rect id="Rectangle_953" data-name="Rectangle 953" width="2.505" height="12.297" transform="matrix(1, -0.015, 0.015, 1, 0, 0.037)" fill="#081e40"/>
          </g>
          <g id="Group_1042" data-name="Group 1042" transform="translate(64.961 118.52)">
            <rect id="Rectangle_954" data-name="Rectangle 954" width="2.505" height="12.297" transform="translate(0 0.037) rotate(-0.848)" fill="#081e40"/>
          </g>
          <g id="Group_1043" data-name="Group 1043" transform="translate(118.52 63.205)">
            <rect id="Rectangle_955" data-name="Rectangle 955" width="12.297" height="2.505" transform="translate(0 0.182) rotate(-0.849)" fill="#081e40"/>
          </g>
          <g id="Group_1044" data-name="Group 1044" transform="translate(0 64.961)">
            <rect id="Rectangle_956" data-name="Rectangle 956" width="12.297" height="2.505" transform="translate(0 0.182) rotate(-0.849)" fill="#081e40"/>
          </g>
          <g id="Group_1045" data-name="Group 1045" transform="translate(7.864 31.764)">
            <rect id="Rectangle_957" data-name="Rectangle 957" width="2.505" height="12.297" transform="translate(0 2.187) rotate(-60.851)" fill="#081e40"/>
          </g>
          <g id="Group_1046" data-name="Group 1046" transform="translate(111.383 89.503)">
            <rect id="Rectangle_958" data-name="Rectangle 958" width="2.505" height="12.297" transform="translate(0 2.187) rotate(-60.849)" fill="#081e40"/>
          </g>
          <g id="Group_1047" data-name="Group 1047" transform="translate(90.384 6.983)">
            <rect id="Rectangle_959" data-name="Rectangle 959" width="12.297" height="2.505" transform="translate(0 10.739) rotate(-60.844)" fill="#081e40"/>
          </g>
          <g id="Group_1048" data-name="Group 1048" transform="translate(32.645 110.502)">
            <rect id="Rectangle_960" data-name="Rectangle 960" width="12.297" height="2.505" transform="translate(0 10.739) rotate(-60.843)" fill="#081e40"/>
          </g>
          <g id="Group_1049" data-name="Group 1049" transform="translate(8.281 90.379)">
            <rect id="Rectangle_961" data-name="Rectangle 961" width="12.297" height="2.505" transform="translate(0 6.305) rotate(-30.849)" fill="#081e40"/>
          </g>
          <g id="Group_1050" data-name="Group 1050" transform="translate(110.043 29.598)">
            <rect id="Rectangle_962" data-name="Rectangle 962" width="12.297" height="2.505" transform="translate(0 6.305) rotate(-30.846)" fill="#081e40"/>
          </g>
          <g id="Group_1051" data-name="Group 1051" transform="translate(30.464 7.414)">
            <rect id="Rectangle_963" data-name="Rectangle 963" width="2.505" height="12.297" transform="translate(0 1.284) rotate(-30.849)" fill="#081e40"/>
          </g>
          <g id="Group_1052" data-name="Group 1052" transform="translate(91.245 109.177)">
            <rect id="Rectangle_964" data-name="Rectangle 964" width="2.505" height="12.297" transform="matrix(0.859, -0.513, 0.513, 0.859, 0, 1.284)" fill="#081e40"/>
          </g>
        </g>
        <path id="Path_775" data-name="Path 775" d="M711.11,251.169A88.98,88.98,0,0,0,591.411,382.7l2.569,2.515,11.505-12.545-2.381-2.354a71.955,71.955,0,0,1,95.92-107.056l-6.207,6.2h27.125V242.337Z" transform="translate(-564.67 -230.121)" fill="#458af5"/>
        <g id="Group_1054" data-name="Group 1054" transform="translate(25.781 136.379)">
          <path id="Path_776" data-name="Path 776" d="M605.134,300.675l-1.255,1.255L578.007,327.8V300.675Z" transform="translate(-578.007 -300.675)" fill="#2ac16d"/>
        </g>
      </g>
    </g>
    <g id="Group_1274" data-name="Group 1274" transform="translate(-25.021 1180.014)">
      <g id="Group_1274-2" data-name="Group 1274" transform="translate(1340.524 3790.851)">
        <path id="Path_793" data-name="Path 793" d="M156.669,306.91l-14.95-5.352a31.446,31.446,0,1,0-.056,8.5Z" transform="translate(-78.513 -273.58)" fill="#fff" stroke="#081e40" stroke-width="2"/>
        <path id="Path_794" data-name="Path 794" d="M110.894,337.962a32,32,0,1,1,31.689-36.427l16.432,5.884-16.5,3.467a32.014,32.014,0,0,1-31.62,27.077Zm0-62.936a30.928,30.928,0,1,0,30.613,35.334l.053-.373,13.514-2.839-13.471-4.82-.04-.327A30.97,30.97,0,0,0,110.894,275.026Z" transform="translate(-78.888 -273.953)" fill="#081e40" stroke="#081e40" stroke-width="2"/>
      </g>
      <text id="_24H" data-name="24H" transform="translate(1346 3812.71)" fill="#458af5" font-size="21" font-family="RocGrotesk-Bold, Roc Grotesk" font-weight="700"><tspan x="-20" y="16">24H</tspan></text>
    </g>
  </g>
</svg>
