<svg xmlns="http://www.w3.org/2000/svg" width="247.636" height="205.288" viewBox="0 0 247.636 205.288">
  <g id="Group_1089" data-name="Group 1089" transform="translate(-72.683 -221.404)">
    <g id="Group_1068" data-name="Group 1068" transform="translate(80.636 221.904)">
      <g id="Group_1062" data-name="Group 1062" transform="translate(0 12.888)">
        <path id="Path_780" data-name="Path 780" d="M77.712,229.233v57.3a7.5,7.5,0,0,0,7.5,7.5h71.294a7.5,7.5,0,0,0,7.5-7.5v-57.3Z" transform="translate(-77.419 -228.94)" fill="#fff" stroke="#707070" stroke-width="1"/>
        <path id="Path_781" data-name="Path 781" d="M156.636,294.452H85.342a7.8,7.8,0,0,1-7.793-7.793V229.07H164.43v57.589A7.8,7.8,0,0,1,156.636,294.452Zm-78.5-64.8v57a7.217,7.217,0,0,0,7.208,7.208h71.294a7.217,7.217,0,0,0,7.208-7.208v-57Z" transform="translate(-77.549 -229.07)" fill="#d2d2d2" stroke="#707070" stroke-width="1"/>
      </g>
      <g id="Group_1066" data-name="Group 1066" transform="translate(15.365 18.124)">
        <g id="Group_1063" data-name="Group 1063">
          <path id="Path_782" data-name="Path 782" d="M139.706,284.569H137.5v-.441h2.21Zm-4.419,0h-2.209v-.441h2.209Zm-4.419,0h-2.209v-.441h2.209Zm-4.417,0h-2.21v-.441h2.21Zm-4.419,0h-2.209v-.441h2.209Zm-4.417,0H115.4v-.441h2.21Zm-4.419,0h-2.209v-.441H113.2Zm-4.419,0h-2.209v-.441h2.209Zm-4.417,0h-2.21v-.441h2.21Zm-4.419,0H97.733v-.441h2.209Zm-4.417,0h-2.21v-.441h2.21Zm-4.419,0H88.9v-.441h2.209Zm-3.617-.8h-.442V281.56h.442Zm52.437-1.381h-.441v-2.209h.441Zm-52.437-3.036h-.442v-2.21h.442Zm52.437-1.381h-.441v-2.209h.441Zm-52.437-3.038h-.442v-2.209h.442Zm52.437-1.381h-.441v-2.209h.441Zm-52.437-3.038h-.442V268.3h.442Zm52.437-1.379h-.441v-2.21h.441ZM87.488,266.1h-.442v-2.209h.442Zm52.437-1.381h-.441v-2.209h.441Zm-52.437-3.038h-.442v-2.209h.442Zm52.437-1.379h-.441v-2.21h.441ZM87.488,257.26h-.442v-2.21h.442Zm52.437-1.381h-.441v-2.209h.441Zm-52.437-3.038h-.442v-2.209h.442Zm52.437-1.381h-.441v-2.209h.441Zm-52.437-3.036h-.442v-2.21h.442Zm52.437-1.381h-.441v-2.21h.441Zm-52.437-3.038h-.442V241.8h.442Zm52.437-1.381h-.441v-2.209h.441Zm-52.437-3.038h-.442v-2.209h.442Zm52.437-1.379h-.441V236h.441ZM87.488,235.17h-.442v-2.306h.345v.221h.1Zm52.437-1.381h-.441V233.3H138.2v-.441h1.725Zm-3.935-.484h-2.209v-.441h2.209Zm-4.417,0h-2.21v-.441h2.21Zm-4.419,0h-2.209v-.441h2.209Zm-4.417,0h-2.21v-.441h2.21Zm-4.419,0H116.11v-.441h2.209Zm-4.419,0h-2.209v-.441H113.9Zm-4.417,0h-2.21v-.441h2.21Zm-4.419,0h-2.209v-.441h2.209Zm-4.417,0h-2.21v-.441h2.21Zm-4.419,0H94.019v-.441h2.209Zm-4.419,0H89.6v-.441h2.209Z" transform="translate(-85.331 -231.276)" fill="#081e40"/>
          <rect id="Rectangle_977" data-name="Rectangle 977" width="3.782" height="3.782" fill="#081e40"/>
          <rect id="Rectangle_978" data-name="Rectangle 978" width="3.782" height="3.782" transform="translate(52.368)" fill="#081e40"/>
          <rect id="Rectangle_979" data-name="Rectangle 979" width="3.782" height="3.782" transform="translate(0 51.129)" fill="#081e40"/>
          <rect id="Rectangle_980" data-name="Rectangle 980" width="3.782" height="3.782" transform="translate(52.368 51.129)" fill="#081e40"/>
        </g>
        <g id="Group_1065" data-name="Group 1065" transform="translate(7.016 8.558)">
          <path id="Path_783" data-name="Path 783" d="M114.539,249.781l-2.176,1.728-3.6,2.858-14.233,11.3a2.8,2.8,0,0,1-3.48-4.381L105.391,249.9l3.667-2.914,2-1.588Z" transform="translate(-89.993 -229.825)" fill="#0e3673"/>
          <path id="Path_784" data-name="Path 784" d="M105.526,250.8l-3.6,2.859-3.37-4.466,3.667-2.914Z" transform="translate(-83.156 -229.12)" fill="#081e40"/>
          <circle id="Ellipse_202" data-name="Ellipse 202" cx="12.587" cy="12.587" r="12.587" transform="translate(16.284)" fill="#ffc300"/>
          <circle id="Ellipse_203" data-name="Ellipse 203" cx="8.42" cy="8.42" r="8.42" transform="translate(20.452 4.167)" fill="#f4f4f4"/>
          <g id="Group_1064" data-name="Group 1064" transform="translate(20.459 4.22)">
            <path id="Path_785" data-name="Path 785" d="M115.911,241.384,102.8,251.695a8.382,8.382,0,0,0,3.307,1.955l10.706-10.021A8.469,8.469,0,0,0,115.911,241.384Z" transform="translate(-100.223 -237.251)" fill="#fff"/>
            <path id="Path_786" data-name="Path 786" d="M111.982,239.327a8.344,8.344,0,0,0-1.255-.241l-9.358,8.759a8.385,8.385,0,0,0,.547,2.613l12.638-9.944A8.411,8.411,0,0,0,111.982,239.327Z" transform="translate(-101.369 -239.086)" fill="#fff"/>
          </g>
        </g>
      </g>
      <g id="Group_1067" data-name="Group 1067">
        <path id="Path_787" data-name="Path 787" d="M164.007,229.567a7.5,7.5,0,0,0-7.5-7.5H85.212a7.5,7.5,0,0,0-7.5,7.5v5.388h86.3Z" transform="translate(-77.419 -221.774)" fill="#d2d2d2" stroke="#707070" stroke-width="1"/>
        <path id="Path_788" data-name="Path 788" d="M164.43,235.376H77.549V229.7a7.8,7.8,0,0,1,7.793-7.793h71.294a7.8,7.8,0,0,1,7.795,7.793Zm-86.3-.584h85.71v-5.1a7.217,7.217,0,0,0-7.208-7.208H85.342a7.217,7.217,0,0,0-7.208,7.208Z" transform="translate(-77.549 -221.904)" fill="#d2d2d2" stroke="#707070" stroke-width="1"/>
      </g>
      <path id="Path_789" data-name="Path 789" d="M85.364,230.743a3.076,3.076,0,1,1,3.077-3.077A3.08,3.08,0,0,1,85.364,230.743Zm0-5.568a2.491,2.491,0,1,0,2.491,2.491A2.5,2.5,0,0,0,85.364,225.175Z" transform="translate(-73.764 -219.759)" fill="#081e40"/>
    </g>
    <g id="Group_1071" data-name="Group 1071" transform="translate(257.753 311.134)">
      <g id="Group_1069" data-name="Group 1069">
        <rect id="Rectangle_981" data-name="Rectangle 981" width="45.921" height="30.22" transform="translate(0.256 0.256)" fill="#fff" stroke="#081e40" stroke-width="2"/>
        <path id="Path_790" data-name="Path 790" d="M222.463,302.251H176.03V271.518h46.433Zm-45.921-.513h45.408V272.031H176.543Z" transform="translate(-176.03 -271.518)" fill="#081e40" stroke="#081e40" stroke-width="2"/>
      </g>
      <g id="Group_1070" data-name="Group 1070" transform="translate(8.913 7.865)">
        <rect id="Rectangle_982" data-name="Rectangle 982" width="45.921" height="30.22" transform="translate(0.257 0.256)" fill="#fff" stroke="#081e40" stroke-width="2"/>
        <path id="Path_791" data-name="Path 791" d="M227.419,306.624H180.986V275.891h46.433Zm-45.919-.513h45.406V276.4H181.5Z" transform="translate(-180.986 -275.891)" fill="#081e40" stroke="#081e40" stroke-width="2"/>
      </g>
      <path id="Path_792" data-name="Path 792" d="M195.418,296.122l-4.706-8.1-5.562,7.012-.805-.638,6.5-8.193,4.732,8.15,8.889-10.457,3.953,6.062,9.515-10.015.745.708L208.268,291.6l-3.912-6Z" transform="translate(-169.39 -264.794)" fill="#599bff" stroke="#599bff" stroke-width="1"/>
    </g>
    <g id="Group_1074" data-name="Group 1074" transform="translate(83.044 315.513)">
      <g id="Group_1072" data-name="Group 1072">
        <path id="Path_793" data-name="Path 793" d="M121.332,291.979l-8.144-2.915a17.129,17.129,0,1,0-.031,4.633Z" transform="translate(-78.758 -273.824)" fill="#fff" stroke="#081e40" stroke-width="2"/>
        <path id="Path_794" data-name="Path 794" d="M96.323,308.82a17.434,17.434,0,1,1,17.262-19.843l8.951,3.2-8.989,1.888A17.439,17.439,0,0,1,96.323,308.82Zm0-34.283A16.847,16.847,0,1,0,113,293.785l.029-.2,7.361-1.547-7.338-2.626-.022-.178A16.87,16.87,0,0,0,96.323,274.538Z" transform="translate(-78.888 -273.953)" fill="#081e40" stroke="#081e40" stroke-width="2"/>
      </g>
      <g id="Group_1073" data-name="Group 1073" transform="translate(11.583 10.198)">
        <path id="Path_795" data-name="Path 795" d="M91.354,293.5l-5.836-6.734a.781.781,0,0,1,1.18-1.023L91,290.712l5.329-10.658a.78.78,0,0,1,1.4.7Z" transform="translate(-85.329 -279.623)" fill="#599bff" stroke="#458af5" stroke-width="1"/>
      </g>
    </g>
    <g id="Group_1078" data-name="Group 1078" transform="translate(207.383 246.333)">
      <g id="Group_1075" data-name="Group 1075" transform="translate(0 3.57)">
        <path id="Path_796" data-name="Path 796" d="M168.952,258.4l9.9-18.445A20.911,20.911,0,1,0,189,252.376Z" transform="translate(-148.023 -237.472)" fill="#2ac16d"/>
        <path id="Path_797" data-name="Path 797" d="M179.706,251.273a20.985,20.985,0,0,0-10.151-12.419l-9.9,18.445Z" transform="translate(-138.731 -236.369)" fill="#f4f4f4"/>
      </g>
      <g id="Group_1077" data-name="Group 1077" transform="translate(39.666)">
        <g id="Group_1076" data-name="Group 1076" transform="translate(29.653)">
          <path id="Path_798" data-name="Path 798" d="M189.284,240.92A2.717,2.717,0,1,1,192,238.2,2.721,2.721,0,0,1,189.284,240.92Zm0-4.849a2.132,2.132,0,1,0,2.133,2.131A2.135,2.135,0,0,0,189.284,236.072Z" transform="translate(-186.566 -235.487)" fill="#081e40" stroke="#081e40" stroke-width="1"/>
          <path id="Path_799" data-name="Path 799" d="M194.222,240.92a2.717,2.717,0,1,1,2.718-2.717A2.721,2.721,0,0,1,194.222,240.92Zm0-4.849a2.132,2.132,0,1,0,2.133,2.131A2.133,2.133,0,0,0,194.222,236.072Z" transform="translate(-182.623 -235.487)" fill="#081e40" stroke="#081e40" stroke-width="1"/>
          <path id="Path_800" data-name="Path 800" d="M199.16,240.92a2.717,2.717,0,1,1,2.718-2.717A2.721,2.721,0,0,1,199.16,240.92Zm0-4.849a2.132,2.132,0,1,0,2.131,2.131A2.135,2.135,0,0,0,199.16,236.072Z" transform="translate(-178.68 -235.487)" fill="#081e40" stroke="#081e40" stroke-width="1"/>
        </g>
        <path id="Path_801" data-name="Path 801" d="M170.492,243.612l-.414-.414,6.47-6.47H196.5v.585H176.79Z" transform="translate(-170.078 -234.495)" fill="#081e40" stroke="#081e40" stroke-width="1"/>
      </g>
    </g>
    <g id="Group_1088" data-name="Group 1088" transform="translate(102.2 289.463)">
      <g id="Group_1085" data-name="Group 1085" transform="translate(0 40.971)">
        <path id="Path_802" data-name="Path 802" d="M173.864,282.249,133.486,292.5a17.245,17.245,0,0,0-11.92,10.712L94.1,377.229h27.695l14.3-33.612,2.083,33.612h80.678l-3.381-57.924-1.626-28.477Z" transform="translate(-85.901 -282.249)" fill="#458af5"/>
        <path id="Path_803" data-name="Path 803" d="M184.831,300.43c-2.676-6.805-10.922-11.311-15.8-12.285l-20.283-3.511,38.959,90.69h27.745Z" transform="translate(-42.26 -280.345)" fill="#458af5"/>
        <g id="Group_1084" data-name="Group 1084">
          <g id="Group_1079" data-name="Group 1079" transform="translate(8.195)">
            <path id="Path_804" data-name="Path 804" d="M222.825,299.758c-2.676-6.805-10.922-11.311-15.8-12.285l-11.525-2c-2.133,8.768-8.555,16.62-16.956,19.882a26.4,26.4,0,0,1-9.552,1.741,28.771,28.771,0,0,1-22.346-10.464,56.825,56.825,0,0,1-4.156-6.4c-.685-1.165-1.379-2.345-2.119-3.494l-12.534,3.183a17.245,17.245,0,0,0-11.92,10.712l-11.133,30a38.63,38.63,0,0,0,24.628,10.325l-.02.586a39.227,39.227,0,0,1-24.828-10.32l-3.4,9.16c2.32,1.268,4.536,2.73,6.7,4.163,1.566,1.038,3.187,2.111,4.818,3.092,4.806,2.881,9.088,4.39,13,4.581l4.757-11.179,2.083,33.612H213.2l-1.964-33.666.617,1.441a71.569,71.569,0,0,0,23.605-11.759Z" transform="translate(-88.449 -279.672)" fill="none"/>
            <path id="Path_805" data-name="Path 805" d="M186.444,310.915a72.161,72.161,0,0,1-23.6,11.741l4,9.316A64.119,64.119,0,0,0,189.834,319.2Z" transform="translate(-39.202 -259.36)" fill="none"/>
            <path id="Path_806" data-name="Path 806" d="M113.191,320.411c-2.128-1.41-4.307-2.847-6.582-4.1L94.1,350.028h27.695l9.3-21.857c-3.955-.239-8.257-1.775-13.059-4.654C116.388,322.531,114.762,321.454,113.191,320.411Z" transform="translate(-94.096 -255.049)" fill="none"/>
            <path id="Path_807" data-name="Path 807" d="M129.436,298.851c7.1,9.023,20.524,12.694,31.227,8.537,8.214-3.189,14.5-10.863,16.591-19.434l-.637-.11-26.073-5.6L123.3,289.168c.7,1.1,1.367,2.232,2.023,3.349A56.367,56.367,0,0,0,129.436,298.851Z" transform="translate(-70.777 -282.249)" fill="none"/>
            <path id="Path_808" data-name="Path 808" d="M188.188,315.842a64.673,64.673,0,0,1-22.99,12.735l9.377,21.828h27.745Z" transform="translate(-37.322 -255.425)" fill="none"/>
            <path id="Path_809" data-name="Path 809" d="M129.242,296.68a28.771,28.771,0,0,0,22.346,10.464,26.4,26.4,0,0,0,9.552-1.741c8.4-3.262,14.823-11.115,16.956-19.882l-.576-.1c-2.1,8.572-8.377,16.246-16.591,19.434-10.7,4.156-24.128.486-31.227-8.537a56.369,56.369,0,0,1-4.113-6.334c-.656-1.117-1.32-2.245-2.023-3.349l-.6.151c.739,1.149,1.433,2.329,2.119,3.494A56.826,56.826,0,0,0,129.242,296.68Z" transform="translate(-71.043 -279.716)" fill="#fff"/>
            <path id="Path_810" data-name="Path 810" d="M107.959,320.17c-2.164-1.433-4.379-2.9-6.7-4.164l-.207.554c2.275,1.25,4.455,2.687,6.582,4.1,1.572,1.043,3.2,2.12,4.842,3.106,4.8,2.879,9.1,4.415,13.059,4.654l.243-.576c-3.914-.191-8.2-1.7-13-4.581C111.146,322.281,109.526,321.207,107.959,320.17Z" transform="translate(-88.541 -255.294)" fill="#fff"/>
            <path id="Path_811" data-name="Path 811" d="M127.906,320.909a38.63,38.63,0,0,1-24.628-10.325l-.219.592a39.227,39.227,0,0,0,24.828,10.32Z" transform="translate(-86.94 -259.624)" fill="#fff"/>
            <path id="Path_812" data-name="Path 812" d="M186.319,310.6a71.569,71.569,0,0,1-23.605,11.758l.234.541a72.161,72.161,0,0,0,23.6-11.741Z" transform="translate(-39.305 -259.608)" fill="#fff"/>
            <path id="Path_813" data-name="Path 813" d="M188.057,315.524a64.12,64.12,0,0,1-22.988,12.767l.232.54a64.673,64.673,0,0,0,22.99-12.735Z" transform="translate(-37.425 -255.679)" fill="#fff"/>
          </g>
          <path id="Rectangle_983" data-name="Rectangle 983" d="M5.751,0H16.613a5.751,5.751,0,0,1,5.751,5.751v6.709a0,0,0,0,1,0,0H0a0,0,0,0,1,0,0V5.751A5.751,5.751,0,0,1,5.751,0Z" transform="translate(16.971 82.326)" fill="#081e40"/>
          <path id="Path_814" data-name="Path 814" d="M158.981,325.677c10.922-.52,26.441,5.093,31.465,16.9H158.981Z" transform="translate(-34.091 -247.599)" fill="#f9b890"/>
          <g id="Group_1082" data-name="Group 1082" transform="translate(0 69.853)">
            <g id="Group_1080" data-name="Group 1080">
              <path id="Path_815" data-name="Path 815" d="M90.352,329.479a18.685,18.685,0,0,0-.628,8.091,10,10,0,0,0,9.922,8.581h8.034c5.2.651,1.82-6.111,1.82-6.111s4.874,3.777,6.241,3.12c3.252-1.559-.779-6.76-.779-6.76s4.68,5.072,5.59,1.561c.869-3.351-1.874-7.4-4.108-9.557-4.5-4.354-11.706-8.832-18.217-6.818A12.025,12.025,0,0,0,90.352,329.479Z" transform="translate(-89.539 -321.089)" fill="#f9b890"/>
            </g>
            <g id="Group_1081" data-name="Group 1081" transform="translate(8.352 8.506)">
              <path id="Path_816" data-name="Path 816" d="M107.449,333.328a43.777,43.777,0,0,0-8.133-7.032l.336-.478a44.322,44.322,0,0,1,8.25,7.14Z" transform="translate(-90.084 -325.818)" fill="#a12a2a"/>
              <path id="Path_817" data-name="Path 817" d="M108.14,337.6c-1.674-1.167-3.951-2.96-6.153-4.694-2.072-1.633-4.029-3.174-5.419-4.149l.335-.478c1.4.984,3.369,2.531,5.448,4.167,2.194,1.728,4.464,3.516,6.124,4.674Z" transform="translate(-92.278 -323.855)" fill="#a12a2a"/>
              <path id="Path_818" data-name="Path 818" d="M101.8,338.3a38.288,38.288,0,0,0-7.613-6.512l.336-.48a38.842,38.842,0,0,1,7.728,6.62Z" transform="translate(-94.183 -321.431)" fill="#a12a2a"/>
            </g>
          </g>
          <g id="Group_1083" data-name="Group 1083" transform="translate(48.685 13.976)">
            <rect id="Rectangle_984" data-name="Rectangle 984" width="17.483" height="0.585" transform="translate(0 48.97) rotate(-67.234)" fill="#081e40"/>
            <path id="Path_819" data-name="Path 819" d="M142.67,294.6c-.131,0-.261,0-.394-.005a11.9,11.9,0,0,1-9.014-4.2l.455-.369a11.323,11.323,0,0,0,8.575,3.984,12.536,12.536,0,0,0,9.7-3.994l.433.392A13.084,13.084,0,0,1,142.67,294.6Z" transform="translate(-103.312 -290.02)" fill="#081e40"/>
          </g>
        </g>
      </g>
      <g id="Group_1086" data-name="Group 1086" transform="translate(71.039)">
        <path id="Rectangle_985" data-name="Rectangle 985" d="M0,0H18.079a0,0,0,0,1,0,0V22.352a4.694,4.694,0,0,1-4.694,4.694H4.694A4.694,4.694,0,0,1,0,22.352V0A0,0,0,0,1,0,0Z" transform="translate(8.159 25.103)" fill="#f9b890"/>
        <path id="Path_820" data-name="Path 820" d="M157.313,277.2c0,12.4-8.485,18.348-12.816,18.348-5.127,0-13.17-4.973-13.17-18.348,0-8.642,5.816-15.645,12.992-15.645S157.313,268.561,157.313,277.2Z" transform="translate(-127.211 -257.8)" fill="#f9b890"/>
        <path id="Path_821" data-name="Path 821" d="M156.663,279.843a15.049,15.049,0,0,0-5.834-11.136l-10.958-.176c-3.9,3.246-5.244,6.5-6.365,10.782l-3.358-.531s.353-17.147,12.55-19.091,18.208,9.192,16.97,19.976Z" transform="translate(-128.152 -259.468)" fill="#081e40"/>
        <ellipse id="Ellipse_204" data-name="Ellipse 204" cx="3.701" cy="4.974" rx="3.701" ry="4.974" transform="matrix(0.994, -0.112, 0.112, 0.994, 0, 17.046)" fill="#f9b890"/>
        <ellipse id="Ellipse_205" data-name="Ellipse 205" cx="4.974" cy="3.701" rx="4.974" ry="3.701" transform="translate(25.619 26.104) rotate(-83.584)" fill="#f9b890"/>
        <path id="Path_822" data-name="Path 822" d="M132.639,273.753a7.613,7.613,0,0,0-.266-.987,5.048,5.048,0,0,0-.4-.885,3.63,3.63,0,0,0-.563-.746,2.472,2.472,0,0,0-.781-.534l.029-.3a1.7,1.7,0,0,1,1.178.3,2.58,2.58,0,0,1,.813.9,3.15,3.15,0,0,1,.374,1.121,2.7,2.7,0,0,1-.081,1.156Z" transform="translate(-127.766 -250.835)" fill="#081e40"/>
        <path id="Path_823" data-name="Path 823" d="M145.21,274.069a3.6,3.6,0,0,1-.151-1.245,3.152,3.152,0,0,1,.344-1.255,2.453,2.453,0,0,1,.908-.989,2,2,0,0,1,1.281-.284l.029.3a3.08,3.08,0,0,0-.91.539,2.784,2.784,0,0,0-.62.793,4.253,4.253,0,0,0-.369.991c-.088.354-.138.727-.207,1.119Z" transform="translate(-116.25 -250.835)" fill="#081e40"/>
        <path id="Path_824" data-name="Path 824" d="M137.924,283.1a17.6,17.6,0,0,0,3.054-.466,11.912,11.912,0,0,0,2.838-1.108,10.778,10.778,0,0,0,2.424-1.829,12.744,12.744,0,0,0,1.878-2.432l.2.1a9.432,9.432,0,0,1-1.707,2.683l-.275.293c-.047.049-.092.1-.14.144l-.147.135a8.018,8.018,0,0,1-.61.527l-.322.245c-.1.083-.221.149-.333.225l-.338.221c-.113.072-.234.13-.351.194a10.517,10.517,0,0,1-3.011,1.085,12.234,12.234,0,0,1-3.164.21Z" transform="translate(-121.943 -245.258)" fill="#a12a2a"/>
      </g>
      <g id="Group_1087" data-name="Group 1087" transform="translate(66.12 81.822)">
        <rect id="Rectangle_986" data-name="Rectangle 986" width="70.176" height="54.129" fill="#081e40"/>
        <rect id="Rectangle_987" data-name="Rectangle 987" width="7.744" height="5.973" transform="translate(31.216 24.078)" fill="#fff"/>
      </g>
    </g>
    <rect id="Rectangle_988" data-name="Rectangle 988" width="245.636" height="0.585" transform="translate(73.683 425.106)" fill="#081e40" stroke="#081e40" stroke-width="2"/>
    <circle id="Ellipse_206" data-name="Ellipse 206" cx="7.483" cy="7.483" r="7.483" transform="translate(286.018 372.972)" fill="none" stroke="#081e40" stroke-width="3"/>
  </g>
</svg>
