<svg xmlns="http://www.w3.org/2000/svg" xmlns:xlink="http://www.w3.org/1999/xlink" width="595.978" height="484.867" viewBox="0 0 595.978 484.867">
  <defs>
    <clipPath id="clip-path">
      <ellipse id="Ellipse_183" data-name="Ellipse 183" cx="13.817" cy="13.817" rx="13.817" ry="13.817" fill="#333"/>
    </clipPath>
    <clipPath id="clip-path-2">
      <rect id="Rectangle_1284" data-name="Rectangle 1284" width="345.627" height="421.212" rx="11.989" fill="none"/>
    </clipPath>
  </defs>
  <g id="Group_1572" data-name="Group 1572" transform="translate(-958 -814.578)">
    <g id="Group_1298" data-name="Group 1298" transform="translate(389.5 -4711.922)">
      <line id="Line_269" data-name="Line 269" y2="98.891" transform="translate(619.945 5528.5)" fill="none" stroke="#ffc300" stroke-linecap="round" stroke-width="4"/>
      <line id="Line_270" data-name="Line 270" y2="98.891" transform="translate(669.391 5577.945) rotate(90)" fill="none" stroke="#ffc300" stroke-linecap="round" stroke-width="4"/>
      <line id="Line_271" data-name="Line 271" y2="98.891" transform="translate(654.908 5612.909) rotate(135)" fill="none" stroke="#ffc300" stroke-linecap="round" stroke-width="4"/>
      <line id="Line_272" data-name="Line 272" y1="98.891" transform="translate(654.908 5542.982) rotate(45)" fill="none" stroke="#ffc300" stroke-linecap="round" stroke-width="4"/>
    </g>
    <g id="Group_1332" data-name="Group 1332" transform="translate(715.625 -1673.555)">
      <g id="Rectangle_1210" data-name="Rectangle 1210" transform="translate(488.723 2502)" fill="#fff" stroke="#333" stroke-width="4">
        <rect width="342.375" height="471" rx="20" stroke="none"/>
        <rect x="2" y="2" width="338.375" height="467" rx="18" fill="none"/>
      </g>
      <text id="Pick_a_project_for_us_to_get_started_on_" data-name="Pick a project for us to get started on!" transform="translate(598.375 2536)" fill="#333" font-size="18" font-family="RocGrotesk-Bold, Roc Grotesk" font-weight="700" letter-spacing="0.01em"><tspan x="20" y="14">Pick a project for us </tspan><tspan x="46" y="39">to get started on!</tspan></text>
    </g>
    <g id="Group_1312" data-name="Group 1312" transform="translate(614.5 -1620.192)">
      <g id="Rectangle_1210-2" data-name="Rectangle 1210" transform="translate(385.723 2502)" fill="#fff" stroke="#333" stroke-width="4">
        <rect width="295" height="373.762" rx="20" stroke="none"/>
        <rect x="2" y="2" width="291" height="369.762" rx="18" fill="none"/>
      </g>
    </g>
    <rect id="Rectangle_1214" data-name="Rectangle 1214" width="96" height="7" rx="3.5" transform="translate(1020.223 906.781)" fill="#e8e8e8"/>
    <g id="Group_1335" data-name="Group 1335" transform="translate(1229.556 898.869)">
      <g id="Rectangle_1217" data-name="Rectangle 1217" transform="translate(-0.005 -0.229)" fill="#fff" stroke="#333" stroke-width="2">
        <rect width="40.671" height="24.281" rx="12.141" stroke="none"/>
        <rect x="1" y="1" width="38.671" height="22.281" rx="11.141" fill="none"/>
      </g>
      <g id="Ellipse_211" data-name="Ellipse 211" transform="translate(19.42 4.021)" fill="#4974e5" stroke="#333" stroke-width="2">
        <ellipse cx="8.195" cy="7.891" rx="8.195" ry="7.891" stroke="none"/>
        <ellipse cx="8.195" cy="7.891" rx="7.195" ry="6.891" fill="none"/>
      </g>
    </g>
    <g id="Group_1563" data-name="Group 1563" transform="translate(0 -10)">
      <g id="Group_1123" data-name="Group 1123" transform="translate(-5948.777 -2611.078)">
        <g id="Rectangle_1211" data-name="Rectangle 1211" transform="translate(6969 3555)" fill="#2ac16d" stroke="#333" stroke-width="3">
          <rect width="119" height="119" rx="10" stroke="none"/>
          <rect x="1.5" y="1.5" width="116" height="116" rx="8.5" fill="none"/>
        </g>
      </g>
      <g id="Group_1325" data-name="Group 1325" transform="translate(367.223 -1711.078)">
        <g id="Ellipse_215" data-name="Ellipse 215" transform="translate(675 2677)" fill="#fff" stroke="#333" stroke-width="2">
          <circle cx="37.5" cy="37.5" r="37.5" stroke="none"/>
          <circle cx="37.5" cy="37.5" r="36.5" fill="none"/>
        </g>
        <g id="Ellipse_216" data-name="Ellipse 216" transform="translate(693.28 2695.281)" fill="#2ac16d" stroke="#333" stroke-width="2">
          <circle cx="19.22" cy="19.22" r="19.22" stroke="none"/>
          <circle cx="19.22" cy="19.22" r="18.22" fill="none"/>
        </g>
        <circle id="Ellipse_217" data-name="Ellipse 217" cx="2.288" cy="2.288" r="2.288" transform="translate(693.777 2687.983)" fill="#333"/>
        <path id="Path_891" data-name="Path 891" d="M0,0H0V18.2" transform="translate(739.046 2690.079) rotate(45)" fill="none" stroke="#333" stroke-width="2"/>
        <line id="Line_288" data-name="Line 288" y1="18.305" transform="translate(699.479 2702.836) rotate(135)" fill="none" stroke="#333" stroke-width="2"/>
        <circle id="Ellipse_218" data-name="Ellipse 218" cx="2.288" cy="2.288" r="2.288" transform="translate(699.344 2691.781)" fill="#333"/>
        <circle id="Ellipse_219" data-name="Ellipse 219" cx="2.288" cy="2.288" r="2.288" transform="translate(702.205 2683.406) rotate(13)" fill="#333"/>
        <circle id="Ellipse_220" data-name="Ellipse 220" cx="2.288" cy="2.288" r="2.288" transform="translate(706.819 2688.832) rotate(13)" fill="#333"/>
        <circle id="Ellipse_221" data-name="Ellipse 221" cx="2.288" cy="2.288" r="2.288" transform="matrix(0.921, 0.391, -0.391, 0.921, 711.288, 2681.513)" fill="#333"/>
        <circle id="Ellipse_222" data-name="Ellipse 222" cx="2.288" cy="2.288" r="2.288" transform="matrix(0.921, 0.391, -0.391, 0.921, 715.01, 2688.585)" fill="#333"/>
        <ellipse id="Ellipse_223" data-name="Ellipse 223" cx="2.288" cy="2.288" rx="2.288" ry="2.288" transform="matrix(-0.999, -0.035, 0.035, -0.999, 731.065, 2692.716)" fill="#333"/>
        <ellipse id="Ellipse_224" data-name="Ellipse 224" cx="2.288" cy="2.288" rx="2.288" ry="2.288" transform="matrix(-0.999, -0.035, 0.035, -0.999, 726.02, 2696.512)" fill="#333"/>
        <ellipse id="Ellipse_225" data-name="Ellipse 225" cx="2.288" cy="2.288" rx="2.288" ry="2.288" transform="matrix(-0.999, -0.035, 0.035, -0.999, 723.65, 2688.139)" fill="#333"/>
        <line id="Line_289" data-name="Line 289" x1="14" y1="13" transform="translate(726.277 2726.578)" fill="none" stroke="#333" stroke-width="2"/>
        <path id="Path_890" data-name="Path 890" d="M9930.869,2692.5l-13.2,12.437s4.713,5.715,4.85,11.412-5.217,11.378-5.217,11.378,14.473,13.371,13.779,13.022c0,0,9.965-11.442,10.141-23.5S9930.869,2692.5,9930.869,2692.5Z" transform="translate(-9191.525 -2.229)" fill="#333"/>
      </g>
      <text id="Infographics" transform="translate(1040.868 1080.945)" fill="#333" font-size="12" font-family="RocGrotesk-Regular, Roc Grotesk" letter-spacing="0.01em"><tspan x="0" y="0">Infographics</tspan></text>
    </g>
    <g id="Group_1571" data-name="Group 1571">
      <g id="Group_1564" data-name="Group 1564" transform="translate(0 -27.477)">
        <g id="Rectangle_1212" data-name="Rectangle 1212" transform="translate(1156.223 961.398)" fill="#e8e8e8" stroke="#333" stroke-width="3">
          <rect width="119" height="119" rx="10" stroke="none"/>
          <rect x="1.5" y="1.5" width="116" height="116" rx="8.5" fill="none"/>
        </g>
        <g id="Group_1567" data-name="Group 1567" transform="translate(8.857 7.057)">
          <rect id="Rectangle_1149" data-name="Rectangle 1149" width="67.168" height="52.864" rx="7" transform="translate(1170.758 991.22)" fill="#333"/>
          <rect id="Rectangle_1150" data-name="Rectangle 1150" width="49.16" height="44.731" rx="3" transform="translate(1184.119 995.286)" fill="#fff"/>
          <rect id="Rectangle_1151" data-name="Rectangle 1151" width="9.876" height="2.324" rx="1.162" transform="translate(1187.57 1016.49)" fill="#333"/>
          <g id="Group_361" data-name="Group 361" transform="translate(1208.699 978.149)">
            <path id="Union_5" data-name="Union 5" d="M.035,33.67,4.178,23.616l0,0,.011,0L26.452,1.342a4.582,4.582,0,1,1,6.479,6.481L10.657,30.095l-.025-.025a.44.44,0,0,1-.143.1L.6,34.24a.441.441,0,0,1-.168.034A.437.437,0,0,1,.035,33.67Z" transform="translate(0 0)" fill="#4974e5" stroke="#333" stroke-linecap="square" stroke-linejoin="round" stroke-width="2"/>
          </g>
        </g>
      </g>
      <text id="New_Logo" data-name="New Logo" transform="translate(1215.723 1070.945)" fill="#333" font-size="12" font-family="RocGrotesk-Regular, Roc Grotesk" letter-spacing="0.01em"><tspan x="-28" y="0">New Logo</tspan></text>
    </g>
    <g id="Group_1570" data-name="Group 1570">
      <g id="Group_1329" data-name="Group 1329" transform="translate(226.223 -1704.055)">
        <g id="Rectangle_1229" data-name="Rectangle 1229" transform="translate(794 2796.453)" fill="#e8e8e8" stroke="#333" stroke-width="3">
          <rect width="119" height="119" rx="10" stroke="none"/>
          <rect x="1.5" y="1.5" width="116" height="116" rx="8.5" fill="none"/>
        </g>
        <line id="Line_281" data-name="Line 281" y2="113" transform="translate(825.5 2799.5)" fill="none" stroke="#fff" stroke-width="2"/>
        <line id="Line_282" data-name="Line 282" y2="113" transform="translate(853.5 2799.5)" fill="none" stroke="#fff" stroke-width="2"/>
        <line id="Line_283" data-name="Line 283" y2="113" transform="translate(881.5 2799.5)" fill="none" stroke="#fff" stroke-width="2"/>
        <line id="Line_284" data-name="Line 284" y2="113" transform="translate(910 2827) rotate(90)" fill="none" stroke="#fff" stroke-width="2"/>
        <line id="Line_285" data-name="Line 285" y2="113" transform="translate(910 2855) rotate(90)" fill="none" stroke="#fff" stroke-width="2"/>
        <line id="Line_286" data-name="Line 286" y2="113" transform="translate(910 2883) rotate(90)" fill="none" stroke="#fff" stroke-width="2"/>
      </g>
      <g id="Group_1562" data-name="Group 1562" transform="translate(-6157.711 -1185.487)">
        <g id="Group_364" data-name="Group 364" transform="translate(7211.4 2307.385)">
          <path id="Path_492" data-name="Path 492" d="M7280.5,2372.657h-49.284a1.76,1.76,0,0,1-1.759-1.759v-61.753a1.76,1.76,0,0,1,1.759-1.759H7267.6l14.657,14.7V2370.9A1.76,1.76,0,0,1,7280.5,2372.657Z" transform="translate(-7229.458 -2307.385)" fill="#fff" stroke="#333" stroke-width="2"/>
          <g id="Group_363" data-name="Group 363" transform="translate(38.146)">
            <g id="Group_362" data-name="Group 362">
              <path id="Path_493" data-name="Path 493" d="M7365.9,2322.09h0v0Z" transform="translate(-7365.902 -2307.385)" fill="#49b1e5" stroke="#333" stroke-linecap="round" stroke-width="2"/>
            </g>
          </g>
        </g>
        <rect id="Rectangle_1152" data-name="Rectangle 1152" width="66.818" height="24.882" rx="5" transform="translate(7204.393 2349.597)" fill="#333"/>
        <line id="Line_315" data-name="Line 315" x2="32" transform="translate(7221.802 2329.987)" fill="none" stroke="#333" stroke-linecap="round" stroke-width="2"/>
        <line id="Line_316" data-name="Line 316" x2="32" transform="translate(7221.802 2340.021)" fill="none" stroke="#333" stroke-linecap="round" stroke-width="2"/>
      </g>
      <g id="Group_1566" data-name="Group 1566" transform="translate(0.354 149)">
        <text id="Presentation" transform="translate(1040.868 1080.945)" fill="#333" font-size="12" font-family="RocGrotesk-Regular, Roc Grotesk" letter-spacing="0.01em"><tspan x="0" y="0">Presentation</tspan></text>
      </g>
    </g>
    <g id="Group_1569" data-name="Group 1569">
      <g id="Group_1124" data-name="Group 1124" transform="translate(-5812.777 -2462.602)">
        <g id="Rectangle_1211-2" data-name="Rectangle 1211" transform="translate(6969 3555)" fill="#ffc300" stroke="#333" stroke-width="3">
          <rect width="119" height="119" rx="10" stroke="none"/>
          <rect x="1.5" y="1.5" width="116" height="116" rx="8.5" fill="none"/>
        </g>
      </g>
      <g id="Group_1330" data-name="Group 1330" transform="translate(362.223 -1712.102)">
        <rect id="Rectangle_1259" data-name="Rectangle 1259" width="77" height="52" rx="10" transform="translate(815 2842)" fill="#333"/>
        <g id="Path_980" data-name="Path 980" transform="translate(815 2834)" fill="#fff">
          <path d="M 67 51 L 10 51 C 5.037377834320068 51 1 46.96262359619141 1 42 L 1 10 C 1 5.037377834320068 5.037377834320068 1 10 1 L 67 1 C 71.96262359619141 1 76 5.037377834320068 76 10 L 76 42 C 76 46.96262359619141 71.96262359619141 51 67 51 Z" stroke="none"/>
          <path d="M 10 2 C 5.588790893554688 2 2 5.588787078857422 2 10 L 2 42 C 2 46.41121292114258 5.588790893554688 50 10 50 L 67 50 C 71.41120910644531 50 75 46.41121292114258 75 42 L 75 10 C 75 5.588787078857422 71.41120910644531 2 67 2 L 10 2 M 10 0 L 67 0 C 72.52285003662109 0 77 4.477153778076172 77 10 L 77 42 C 77 47.52284622192383 72.52285003662109 52 67 52 L 10 52 C 4.477149963378906 52 0 47.52284622192383 0 42 L 0 10 C 0 4.477153778076172 4.477149963378906 0 10 0 Z" stroke="none" fill="#333"/>
        </g>
        <g id="Group_1568" data-name="Group 1568" transform="translate(1.681 4.269)">
          <path id="Path_979" data-name="Path 979" d="M14.639,0A14.639,14.639,0,1,1,0,14.639,14.639,14.639,0,0,1,14.639,0Z" transform="translate(822.542 2841.093)" fill="none" stroke="#333" stroke-width="2"/>
          <g id="Group_183" data-name="Group 183" transform="translate(823.363 2841.914)">
            <g id="Group_182" data-name="Group 182" transform="translate(0 0)" clip-path="url(#clip-path)">
              <g id="Group_181" data-name="Group 181" transform="translate(2.802 4.139)">
                <path id="Path_379" data-name="Path 379" d="M4901.34,1786.271c-1.146-2.419-4.075-2.165-4.075-2.165h-11.97c-2.8-.127-3.566,1.528-3.566,1.528l-1.4,2.929c.765,2.674,4.2,5.731,10.57,5.858s11.716-5.6,11.716-5.6Z" transform="translate(-4880.327 -1770.289)" fill="#333"/>
                <circle id="Ellipse_182" data-name="Ellipse 182" cx="5.158" cy="5.158" r="5.158" transform="translate(5.922)" fill="#333"/>
              </g>
            </g>
          </g>
        </g>
      </g>
      <g id="Group_1565" data-name="Group 1565" transform="translate(132.354 149)">
        <text id="Business_Cards" data-name="Business Cards" transform="translate(1036.868 1080.945)" fill="#333" font-size="12" font-family="RocGrotesk-Regular, Roc Grotesk" letter-spacing="0.01em"><tspan x="0" y="0">Business Cards</tspan></text>
      </g>
      <line id="Line_317" data-name="Line 317" x2="20.376" transform="translate(1224.175 1138.399)" fill="none" stroke="#333" stroke-linecap="round" stroke-width="2"/>
      <line id="Line_318" data-name="Line 318" x2="20.376" transform="translate(1224.175 1147.422)" fill="none" stroke="#333" stroke-linecap="round" stroke-width="2"/>
      <line id="Line_319" data-name="Line 319" x2="20.376" transform="translate(1224.175 1156.445)" fill="none" stroke="#333" stroke-linecap="round" stroke-width="2"/>
    </g>
    <g id="Group_1532" data-name="Group 1532" transform="translate(1206.723 862.445)">
      <g id="Group_1342" data-name="Group 1342" transform="translate(1.628 11.788)" clip-path="url(#clip-path-2)">
        <path id="Path_937" data-name="Path 937" d="M43.852,273.444l114.466,2.725c3.883-6.191,8.366-15.6,5.45-24.528-3.049-9.337-11.565-10.091-13.627-19.078-2.411-10.5,8.112-14.311,8.177-27.253.065-13.3-11.013-15-13.627-29.98-2.438-13.968,6.011-19.282,8.175-35.429,1.326-9.885.379-24.447-10.9-43.608A50.107,50.107,0,0,0,127.6,61.606,49.057,49.057,0,0,0,43.852,96.294Z" transform="translate(103.624 36.027)" fill="#222f3e"/>
        <path id="Path_938" data-name="Path 938" d="M72.832,79.007c-2.577,5.632-.672,12.023,4.255,14.278S88.1,92.8,90.674,87.172s.672-12.023-4.255-14.278-11.01.483-13.587,6.113" transform="translate(127.448 54.992)" fill="#f9b890"/>
        <path id="Path_939" data-name="Path 939" d="M74.225,75.439a5.567,5.567,0,0,1,4.513,1.222c1.81,1.75,1.992,5.117-.011,7.751" transform="translate(134.626 57.484)" fill="none" stroke="#b75c5c" stroke-width="0.599"/>
        <line id="Line_294" data-name="Line 294" x1="6.919" y2="5.207" transform="translate(205.823 136.322)" fill="none" stroke="#b75c5c" stroke-width="0.599"/>
        <rect id="Rectangle_1283" data-name="Rectangle 1283" width="33.96" height="38.489" transform="translate(160.12 159.706)" fill="#f9b890"/>
        <path id="Path_940" data-name="Path 940" d="M119.934,90.6V112.7a45.847,45.847,0,0,1-18.949-3.257A33.081,33.081,0,0,1,85.974,97.777V90.6Z" transform="translate(74.146 69.103)" fill="#ea8349"/>
        <path id="Path_941" data-name="Path 941" d="M80.842,104.222a36.8,36.8,0,0,0,9.73,18.575,22.215,22.215,0,0,0,14.851,6.714c6.132.2,11.859-2.381,16.522-6.892a38.066,38.066,0,0,0,10.084-18.346,48.617,48.617,0,0,0,1.343-9.808c.659-19.841-10.768-36.338-25.568-36.819s-27.317,15.2-27.976,35.046a47.636,47.636,0,0,0,1.014,11.53" transform="translate(71.557 43.957)" fill="#f9b890"/>
        <path id="Path_942" data-name="Path 942" d="M58.363,50.932c0,7.774,5.986,14.075,13.372,14.075s13.372-6.3,13.372-14.075S79.121,36.857,71.735,36.857s-13.372,6.3-13.372,14.075" transform="translate(157.644 28.109)" fill="#222f3e"/>
        <path id="Path_943" data-name="Path 943" d="M75.889,62.245A15.15,15.15,0,0,1,69.408,46.92c1.586-8.184,9.494-11.133,9.854-11.26" transform="translate(144.487 27.196)" fill="none" stroke="#222f3e" stroke-width="0.399"/>
        <path id="Path_944" data-name="Path 944" d="M55.845,59.008c4.142,3.656,9.767,4.847,14.34,2.935,6.2-2.593,9.744-10.59,7.037-18.3" transform="translate(169.047 33.286)" fill="none" stroke="#222f3e" stroke-width="0.399"/>
        <path id="Path_945" data-name="Path 945" d="M65.949,54a3.167,3.167,0,1,0,3.168-3.168A3.167,3.167,0,0,0,65.949,54" transform="translate(157.096 38.767)" fill="#2ac16d"/>
        <path id="Path_946" data-name="Path 946" d="M68.345,52.4a3.167,3.167,0,1,0,3.168-3.168A3.167,3.167,0,0,0,68.345,52.4" transform="translate(150.477 37.549)" fill="#2ac16d"/>
        <path id="Path_947" data-name="Path 947" d="M70.217,50.8a3.167,3.167,0,1,0,3.168-3.168A3.167,3.167,0,0,0,70.217,50.8" transform="translate(145.305 36.331)" fill="#2ac16d"/>
        <path id="Path_948" data-name="Path 948" d="M86.575,70.506v3.5H93.67L98.637,65.4l4.969,8.614h13.358v-3.5a15.194,15.194,0,0,0-30.389,0" transform="translate(76.057 42.19)" fill="#222f3e"/>
        <path id="Path_949" data-name="Path 949" d="M129.127,212.136h0a18.206,18.206,0,0,0-2.489-25.628l-86.007-70.78a18.207,18.207,0,1,0-23.139,28.117l86.007,70.78a18.206,18.206,0,0,0,25.628-2.489" transform="translate(193.218 85.1)" fill="#f9b890"/>
        <path id="Path_950" data-name="Path 950" d="M117.863,240.919h0a18.207,18.207,0,0,1-6.665-24.872l55.693-96.462a18.207,18.207,0,1,1,31.536,18.207l-55.693,96.462a18.209,18.209,0,0,1-24.872,6.665" transform="translate(-46.946 84.26)" fill="#f9b890"/>
        <path id="Path_951" data-name="Path 951" d="M185.017,250.888h0a18.208,18.208,0,0,1-21.225-14.578L140.136,108.893l35.8-6.647,23.655,127.417a18.206,18.206,0,0,1-14.578,21.225" transform="translate(-101.295 77.982)" fill="#f9b890"/>
        <path id="Path_952" data-name="Path 952" d="M153.731,85.145l-.841,23.9a20.5,20.5,0,0,0,40.976,1.442l.841-23.9Z" transform="translate(-118.556 64.939)" fill="#f9b890"/>
        <path id="Path_953" data-name="Path 953" d="M159.428,85.514l-.818,23.254a20.5,20.5,0,0,0,31.734,17.863" transform="translate(-124.276 65.22)" fill="none" stroke="#a12a2a" stroke-width="0.513"/>
        <path id="Path_954" data-name="Path 954" d="M179.523,110.4a18.2,18.2,0,0,0-2.554-10.4c-4.153-6.815-11.461-8.232-12.669-8.445" transform="translate(-123.536 69.828)" fill="none" stroke="#a12a2a" stroke-width="0.513"/>
        <path id="Path_955" data-name="Path 955" d="M153.588,70.721l-1.313,37.353a5.141,5.141,0,0,0,10.275.361l1.313-37.353a5.141,5.141,0,0,0-10.275-.361" transform="translate(-86.647 50.155)" fill="#f9b890"/>
        <path id="Path_956" data-name="Path 956" d="M159.144,82.055l-.6,17.125a5.141,5.141,0,0,0,10.275.361l.6-17.125a5.141,5.141,0,1,0-10.275-.361" transform="translate(-103.251 58.799)" fill="#e5a27c"/>
        <path id="Path_957" data-name="Path 957" d="M164.922,81.852l-.6,17.125a5.141,5.141,0,1,0,10.275.361l.6-17.125a5.141,5.141,0,1,0-10.275-.361" transform="translate(-119.214 58.644)" fill="#e5a27c"/>
        <path id="Path_958" data-name="Path 958" d="M170.7,81.649l-.6,17.125a5.141,5.141,0,1,0,10.275.361l.6-17.125a5.141,5.141,0,0,0-10.275-.361" transform="translate(-135.176 58.489)" fill="#e5a27c"/>
        <path id="Path_959" data-name="Path 959" d="M174.672,95.622h0a2.726,2.726,0,0,1-2.628-2.819l.192-5.449,5.447.192-.19,5.447a2.727,2.727,0,0,1-2.82,2.628" transform="translate(-135.314 66.624)" fill="#ea8349"/>
        <path id="Path_960" data-name="Path 960" d="M161.971,96.731h0a2.726,2.726,0,0,1-2.628-2.82l.192-5.447,5.447.192-.19,5.447a2.726,2.726,0,0,1-2.82,2.628" transform="translate(-100.225 67.47)" fill="#ea8349"/>
        <path id="Path_961" data-name="Path 961" d="M168.322,96.175h0a2.725,2.725,0,0,1-2.628-2.819l.192-5.447,5.447.19-.192,5.447a2.722,2.722,0,0,1-2.819,2.628" transform="translate(-117.771 67.048)" fill="#ea8349"/>
        <path id="Path_962" data-name="Path 962" d="M173.457,102.084,162.609,88.82a5.141,5.141,0,0,0-7.959,6.51L165.5,108.594a5.141,5.141,0,1,0,7.959-6.51" transform="translate(-99.547 66.303)" fill="#e5a27c"/>
        <path id="Path_963" data-name="Path 963" d="M165.468,86.6l-4.349,3.577,2.683,3.261a2.815,2.815,0,0,0,4.349-3.577Z" transform="translate(-107.17 66.051)" fill="#ea8349"/>
        <path id="Path_964" data-name="Path 964" d="M211.32,199.143a184.256,184.256,0,0,0-164.231,0,295.394,295.394,0,0,0,81.017,11.585,295.567,295.567,0,0,0,83.214-11.585" transform="translate(51.303 137.158)" fill="#222f3e"/>
        <path id="Path_965" data-name="Path 965" d="M53.659,434.936H97.8v.226H149.88v-.226h58.964l-.929-34.175c.071-2.45.183-5.392.252-8.784.028-.7.056-1.437.056-2.168.3-14.2.395-35.33-.816-60.075-.21-3.927-.393-7.629-.548-11.063-.028-.353-.028-.677-.042-1.042-.647-11.8-1.3-20.9-2.436-29.152a139.929,139.929,0,0,0-3.391-17.144c-.465-1.745-.985-3.6-1.576-5.574-.437-1.394-.9-2.843-1.408-4.35-1.491-4.461-3.377-9.374-5.743-14.637a10.929,10.929,0,0,1-.478-1.028c-1.648-3.506-3.506-7.194-5.618-10.994-.464-.816-.929-1.646-1.407-2.477,0-.014-.014-.014-.014-.028a169.17,169.17,0,0,0-11.852-17.75v-.028a.421.421,0,0,0-.071-.1V164.246H89.791V215c-2.265,3.027-4.391,6.025-6.348,8.993-.367.564-.788,1.14-1.14,1.719-1.38,2.152-2.688,4.278-3.9,6.39-.028.042-.056.1-.085.141-.449.788-.9,1.562-1.322,2.336v.014Q74.062,239.812,71.8,244.7a5.617,5.617,0,0,0-.478,1.042,154.564,154.564,0,0,0-6.279,15.722c-.506,1.535-.985,3.027-1.407,4.449v.028c-.592,1.9-1.1,3.716-1.549,5.39a139.633,139.633,0,0,0-3.448,17.384q-.4,3.189-.76,6.545c-.071.562-.141,1.14-.212,1.745-.522,5.8-.915,12.147-1.338,19.622-.014.323-.014.675-.042,1-.141,2.322-.252,4.715-.393,7.234q-.021,1.14-.085,2.281c-.056.873-.1,1.717-.141,2.589-.141,2.942-.254,5.856-.381,8.727-.042.9-.056,1.773-.085,2.66-.464,12.654-.548,24.1-.534,33.825l-.83,53.5Z" transform="translate(42.198 125.269)" fill="#2ac16d"/>
        <path id="Path_966" data-name="Path 966" d="M96.831,253.724A50.588,50.588,0,0,1,85.7,251a48.715,48.715,0,0,1-8.457-4.093c-14.516-8.856-19.959-22.682-21.554-27.313" transform="translate(150.626 167.486)" fill="none" stroke="#222f3e" stroke-width="0.799"/>
        <line id="Line_295" data-name="Line 295" x1="1.082" y1="141.714" transform="translate(236.331 418.491)" fill="none" stroke="#222f3e" stroke-width="0.799"/>
        <path id="Path_967" data-name="Path 967" d="M115.992,253.724A50.611,50.611,0,0,0,127.118,251a48.716,48.716,0,0,0,8.457-4.093c14.516-8.856,19.959-22.682,21.554-27.313" transform="translate(-15.962 167.486)" fill="none" stroke="#222f3e" stroke-width="0.799"/>
        <line id="Line_296" data-name="Line 296" y1="141.714" x2="1.082" transform="translate(110.074 418.491)" fill="none" stroke="#222f3e" stroke-width="0.799"/>
        <line id="Line_297" data-name="Line 297" x1="18.88" transform="translate(162.423 414.229)" fill="none" stroke="#222f3e" stroke-width="0.799"/>
        <line id="Line_298" data-name="Line 298" x1="0.173" y2="146.646" transform="translate(171.691 414.229)" fill="none" stroke="#222f3e" stroke-width="0.799"/>
        <path id="Path_968" data-name="Path 968" d="M47.089,251.359a289.261,289.261,0,0,1,164.231,0q-4.373-15.645-8.748-31.29L195.595,195l-23.384-83.628H82.71l-7.386,29.016L61.288,195.575v.023L55.1,219.974V220Z" transform="translate(51.303 84.942)" fill="#458af5"/>
        <path id="Path_969" data-name="Path 969" d="M151.692,166.125a18.207,18.207,0,0,0-22.013-13.358L12.377,182.51l-1.407,33.78q63.682-14.074,127.364-28.152a18.206,18.206,0,0,0,13.358-22.013" transform="translate(174.071 116.113)" fill="#f9b890"/>
        <path id="Path_970" data-name="Path 970" d="M116.622,215.043l6.949,31.579,20.837-24.72,32.159,3.173-17.049-27.466,12.929-29.6-31.364,7.731-24.167-21.464-2.341,32.242L86.695,202.857Z" transform="translate(16.244 117.662)" fill="#ffc300"/>
        <path id="Path_971" data-name="Path 971" d="M101.091,176.584l-.076,19.191a7.235,7.235,0,0,1-7.169,7.2l-7.192.067-.06-6.416-.005-.654-.079-8.537-.007-.652-.078-8.539-.007-.652-.081-8.207,6.829-.062.628-.005a7.234,7.234,0,0,1,7.3,7.262" transform="translate(92.35 129.141)" fill="#f9b890"/>
        <path id="Path_972" data-name="Path 972" d="M128.752,173.427h0a4.266,4.266,0,0,0-4.275-4.257l-30.96.063a4.266,4.266,0,0,0-4.257,4.276h0a4.266,4.266,0,0,0,4.276,4.257l30.96-.065a4.265,4.265,0,0,0,4.257-4.275" transform="translate(59.538 129.025)" fill="#f9b890"/>
        <path id="Path_973" data-name="Path 973" d="M134.383,178.64h0a4.266,4.266,0,0,0-4.275-4.257l-36.6.076a4.267,4.267,0,0,0,.018,8.533l36.6-.078a4.265,4.265,0,0,0,4.257-4.275" transform="translate(53.925 133.001)" fill="#f9b890"/>
        <path id="Path_974" data-name="Path 974" d="M128.73,183.853h0a4.266,4.266,0,0,0-4.275-4.257l-30.96.063a4.267,4.267,0,0,0,.018,8.533l30.96-.065a4.265,4.265,0,0,0,4.257-4.275" transform="translate(59.597 136.977)" fill="#f9b890"/>
        <path id="Path_975" data-name="Path 975" d="M118,188.083h0a3.282,3.282,0,0,0-3.289-3.275l-22.21.046a3.282,3.282,0,0,0,.014,6.564l22.21-.046A3.284,3.284,0,0,0,118,188.083" transform="translate(70.344 140.952)" fill="#f9b890"/>
      </g>
    </g>
  </g>
</svg>
